# xmcd
#
# Track frame offsets:
#	150
#	12582
#	34307
#	57762
#	93812
#	112267
#	141100
#	156325
#	183557
#	222482
#	261895
#	286145
#
# Disc length: 4189 seconds
#
# Revision: 0
# Processed by: cddbd v1.5.2PL0 Copyright (c) Steve Scherf et al.
# Submitted via: audiograbber 1.83.01
#
DISCID=b4105b0c
DTITLE=Marillion - The Thieving Magpie (La Gazza Ladra) [remastered 2009] [CD 1
DTITLE=)
DYEAR=1988
DGENRE=Progressive Rock
TTITLE0=Intro: La Gazza Ladra [live]
TTITLE1=Sláinte Mhath [live]
TTITLE2=He Knows You Know [live]
TTITLE3=Chelsea Monday [live]
TTITLE4=Freaks [live]
TTITLE5=Jigsaw [live]
TTITLE6=Punch And Judy [live]
TTITLE7=Sugar Mice [live]
TTITLE8=Fugazi [live]
TTITLE9=Script For A Jester's Tear [live]
TTITLE10=Incommunicado [live]
TTITLE11=White Russian [live]
EXTD=
EXTT0=
EXTT1=
EXTT2=
EXTT3=
EXTT4=
EXTT5=
EXTT6=
EXTT7=
EXTT8=
EXTT9=
EXTT10=
EXTT11=
PLAYORDER=
